<svg xmlns="http://www.w3.org/2000/svg" xmlns:xlink="http://www.w3.org/1999/xlink" width="1080" zoomAndPan="magnify" viewBox="0 0 810 809.999993" height="1080" preserveAspectRatio="xMidYMid meet" version="1.0"><defs><g/><clipPath id="0b394de01e"><path d="M 81 11 L 733 11 L 733 800 L 81 800 Z M 81 11 " clip-rule="nonzero"/></clipPath></defs><rect x="-81" width="972" fill="#ffffff" y="-80.999999" height="971.999992" fill-opacity="1"/><rect x="-81" width="972" fill="#000000" y="-80.999999" height="971.999992" fill-opacity="1"/><g fill="#ffffff" fill-opacity="1"><g transform="translate(423.98751, 474.639572)"><g><path d="M 12.453125 0 L 11.96875 -2.28125 L 11.84375 -2.28125 C 11.050781 -1.28125 10.253906 -0.597656 9.453125 -0.234375 C 8.660156 0.117188 7.664062 0.296875 6.46875 0.296875 C 4.882812 0.296875 3.640625 -0.113281 2.734375 -0.9375 C 1.828125 -1.757812 1.375 -2.925781 1.375 -4.4375 C 1.375 -7.675781 3.96875 -9.375 9.15625 -9.53125 L 11.875 -9.625 L 11.875 -10.625 C 11.875 -11.882812 11.601562 -12.8125 11.0625 -13.40625 C 10.519531 -14.007812 9.65625 -14.3125 8.46875 -14.3125 C 7.125 -14.3125 5.609375 -13.898438 3.921875 -13.078125 L 3.171875 -14.9375 C 3.960938 -15.375 4.828125 -15.710938 5.765625 -15.953125 C 6.710938 -16.191406 7.660156 -16.3125 8.609375 -16.3125 C 10.523438 -16.3125 11.941406 -15.882812 12.859375 -15.03125 C 13.785156 -14.1875 14.25 -12.828125 14.25 -10.953125 L 14.25 0 Z M 6.953125 -1.71875 C 8.472656 -1.71875 9.664062 -2.128906 10.53125 -2.953125 C 11.394531 -3.785156 11.828125 -4.953125 11.828125 -6.453125 L 11.828125 -7.890625 L 9.390625 -7.796875 C 7.453125 -7.722656 6.054688 -7.421875 5.203125 -6.890625 C 4.347656 -6.359375 3.921875 -5.53125 3.921875 -4.40625 C 3.921875 -3.53125 4.1875 -2.863281 4.71875 -2.40625 C 5.25 -1.945312 5.992188 -1.71875 6.953125 -1.71875 Z M 6.953125 -1.71875 "/></g></g></g><g clip-path="url(#0b394de01e)"><path fill="#ffffff" d="M 408.320312 11.5625 C 403.671875 11.648438 399.988281 15.457031 400.070312 20.066406 L 400.070312 83.128906 C 399.902344 87.863281 403.714844 91.796875 408.445312 91.796875 C 413.175781 91.796875 416.945312 87.863281 416.820312 83.128906 L 416.820312 20.066406 C 416.90625 15.332031 413.050781 11.480469 408.320312 11.5625 Z M 326.074219 22.410156 C 320.421875 22.285156 316.277344 27.6875 317.824219 33.089844 L 334.15625 94.019531 C 335.246094 98.625 339.894531 101.429688 344.5 100.214844 C 349.066406 99 351.703125 94.226562 350.320312 89.703125 L 333.988281 28.773438 C 333.070312 25.089844 329.84375 22.535156 326.074219 22.410156 Z M 248.605469 54.320312 C 242.28125 54.527344 238.46875 61.523438 241.738281 66.964844 L 273.3125 121.613281 C 275.53125 125.761719 280.765625 127.226562 284.871094 124.878906 C 288.929688 122.492188 290.269531 117.257812 287.800781 113.199219 L 256.269531 58.589844 C 254.71875 55.828125 251.789062 54.195312 248.605469 54.320312 Z M 529.046875 78.902344 C 511.921875 78.984375 494.125 81.035156 475.78125 85.308594 L 495.503906 158.800781 C 499.234375 156.164062 503.503906 154.109375 508.152344 152.894531 C 513.429688 151.472656 518.746094 151.222656 523.855469 151.933594 C 539.140625 154.070312 552.5 165.125 556.730469 180.953125 C 562.382812 202.015625 549.777344 223.875 528.671875 229.527344 C 524.023438 230.742188 519.332031 231.121094 514.769531 230.703125 L 534.703125 305.03125 L 606.644531 285.769531 C 614.015625 282.292969 621.511719 290.332031 617.53125 297.453125 C 617.492188 297.535156 617.449219 297.621094 617.363281 297.703125 C 614.433594 302.8125 613.429688 308.925781 615.105469 315.082031 C 618.410156 327.394531 630.847656 334.597656 643.160156 331.289062 C 655.472656 327.980469 662.632812 315.542969 659.367188 303.230469 C 657.691406 297.074219 653.753906 292.257812 648.6875 289.328125 C 648.605469 289.285156 648.519531 289.246094 648.480469 289.203125 C 648.394531 289.160156 648.3125 289.117188 648.269531 289.078125 C 641.652344 284.847656 643.957031 274.671875 651.746094 273.707031 L 720.421875 255.324219 C 718.578125 236.898438 715.355469 219.980469 709.742188 203.816406 C 707.777344 204.570312 705.765625 205.199219 703.671875 205.785156 C 670.714844 214.621094 636.585938 194.898438 627.75 161.941406 C 622.808594 143.472656 626.789062 124.628906 637.046875 110.097656 C 606.8125 90.039062 569.960938 78.773438 529.007812 78.941406 Z M 687.257812 100.59375 C 683.527344 100.675781 679.71875 101.136719 675.949219 102.183594 C 651.703125 108.675781 637.421875 133.339844 643.914062 157.585938 C 650.445312 181.789062 675.113281 196.070312 699.359375 189.578125 C 723.605469 183.089844 737.84375 158.382812 731.351562 134.175781 C 726.492188 116.003906 711.375 103.398438 693.914062 101.011719 C 691.738281 100.71875 689.515625 100.59375 687.257812 100.59375 Z M 182.859375 104.949219 C 175.320312 104.949219 171.636719 114.117188 177.039062 119.351562 L 221.636719 163.953125 C 224.945312 167.257812 230.222656 167.257812 233.527344 163.953125 C 236.796875 160.683594 236.796875 155.410156 233.527344 152.101562 L 188.890625 107.503906 C 187.296875 105.867188 185.121094 104.949219 182.859375 104.949219 Z M 704.929688 117.929688 C 711.375 118.054688 715.269531 125.175781 711.921875 130.703125 L 690.984375 166.128906 C 688.679688 170.066406 683.65625 171.40625 679.675781 169.1875 L 663.050781 159.804688 C 658.949219 157.542969 657.441406 152.394531 659.742188 148.289062 C 662.046875 144.226562 667.238281 142.804688 671.300781 145.191406 L 680.722656 150.507812 L 697.472656 122.160156 C 698.980469 119.519531 701.828125 117.886719 704.929688 117.929688 Z M 399.988281 136.269531 C 265.984375 140.792969 187.71875 249.253906 207.691406 363.949219 L 264.851562 363.949219 C 263.261719 359.636719 262.421875 355.03125 262.421875 350.214844 C 262.421875 328.398438 280.261719 310.558594 302.082031 310.558594 C 323.898438 310.558594 341.738281 328.398438 341.738281 350.214844 C 341.738281 355.03125 340.859375 359.636719 339.308594 363.949219 L 400.113281 363.949219 C 399.734375 331.078125 400.40625 284.972656 400.53125 271.824219 C 400.53125 271.699219 400.53125 271.574219 400.53125 271.488281 C 400.53125 271.445312 400.53125 271.40625 400.53125 271.363281 C 400.742188 266.925781 404.382812 263.40625 408.824219 263.363281 C 411.375 263.324219 413.804688 264.453125 415.398438 266.464844 C 419.5 270.273438 424.945312 272.621094 431.015625 272.621094 C 443.789062 272.621094 453.921875 262.484375 453.921875 249.753906 C 453.921875 236.984375 443.789062 226.847656 431.015625 226.847656 C 424.652344 226.847656 419 229.402344 414.8125 233.550781 C 414.726562 233.675781 414.644531 233.757812 414.515625 233.84375 C 414.476562 233.882812 414.433594 233.925781 414.351562 233.96875 C 414.183594 234.136719 414.015625 234.261719 413.847656 234.386719 C 413.636719 234.554688 413.386719 234.722656 413.175781 234.847656 C 413.136719 234.847656 413.136719 234.847656 413.136719 234.847656 C 407.523438 238.113281 400.488281 234.050781 400.53125 227.5625 C 400.53125 208.96875 400.320312 160.433594 399.988281 136.230469 Z M 132.480469 171.027344 C 123.6875 170.691406 120.421875 182.417969 128.085938 186.730469 L 182.734375 218.265625 C 192.40625 223.75 200.742188 209.34375 191.109375 203.734375 L 136.460938 172.199219 C 135.289062 171.488281 133.90625 171.070312 132.480469 171.027344 Z M 100.113281 247.914062 C 90.355469 248.164062 88.804688 262.066406 98.269531 264.453125 L 159.242188 280.785156 C 169.917969 283.507812 174.191406 267.550781 163.554688 264.578125 L 102.582031 248.246094 C 101.789062 247.996094 100.949219 247.914062 100.113281 247.914062 Z M 302.082031 327.308594 C 289.308594 327.308594 279.175781 337.484375 279.175781 350.214844 C 279.175781 356.582031 281.730469 362.234375 285.875 366.421875 C 285.957031 366.503906 286.042969 366.589844 286.125 366.671875 C 286.292969 366.839844 286.460938 367.050781 286.585938 367.257812 C 286.628906 367.257812 286.628906 367.300781 286.671875 367.34375 C 286.796875 367.511719 286.921875 367.679688 287.003906 367.886719 C 287.046875 367.929688 287.089844 368.011719 287.128906 368.054688 C 287.257812 368.222656 287.339844 368.390625 287.421875 368.558594 C 287.464844 368.640625 287.507812 368.726562 287.550781 368.808594 C 287.632812 368.976562 287.71875 369.1875 287.757812 369.351562 C 287.800781 369.4375 287.84375 369.519531 287.882812 369.605469 C 287.96875 369.8125 288.011719 370.023438 288.09375 370.234375 C 288.09375 370.273438 288.09375 370.316406 288.09375 370.359375 C 288.175781 370.566406 288.21875 370.777344 288.21875 370.988281 C 288.261719 371.070312 288.261719 371.113281 288.261719 371.195312 C 288.304688 371.40625 288.304688 371.574219 288.34375 371.78125 C 288.34375 371.867188 288.34375 371.949219 288.34375 372.035156 C 288.34375 372.160156 288.34375 372.328125 288.34375 372.453125 C 288.34375 372.621094 288.34375 372.785156 288.34375 372.914062 C 288.304688 372.953125 288.304688 373.039062 288.304688 373.082031 C 288.304688 373.289062 288.261719 373.539062 288.21875 373.792969 C 288.175781 374.042969 288.09375 374.292969 288.050781 374.585938 C 287.96875 374.839844 287.882812 375.132812 287.800781 375.382812 C 287.757812 375.425781 287.757812 375.46875 287.71875 375.46875 C 287.550781 375.96875 287.296875 376.429688 287.003906 376.847656 C 286.878906 377.101562 286.710938 377.308594 286.542969 377.5625 C 284.910156 379.570312 282.480469 380.742188 279.886719 380.703125 L 210.371094 380.703125 C 210.539062 381.328125 210.664062 381.914062 210.832031 382.503906 C 227.539062 444.898438 261.417969 483.632812 292.15625 516.589844 C 307.523438 533.089844 322.140625 548.039062 333.234375 564.035156 C 342.660156 577.644531 348.480469 592.679688 350.320312 609.09375 L 400.070312 609.09375 C 400.070312 576.011719 399.988281 542.71875 399.988281 509.597656 C 395.671875 511.1875 391.023438 512.066406 386.210938 512.066406 C 364.390625 512.066406 346.550781 494.226562 346.550781 472.410156 C 346.550781 450.59375 364.390625 432.753906 386.210938 432.753906 C 391.023438 432.753906 395.671875 433.632812 399.988281 435.222656 L 400.070312 380.703125 L 324.234375 380.703125 C 324.148438 380.703125 324.066406 380.703125 323.980469 380.703125 C 323.6875 380.703125 323.394531 380.660156 323.101562 380.617188 C 323.058594 380.617188 323.058594 380.617188 323.058594 380.617188 C 322.808594 380.574219 322.558594 380.535156 322.304688 380.492188 C 322.304688 380.492188 322.265625 380.492188 322.222656 380.492188 C 322.011719 380.449219 321.804688 380.367188 321.636719 380.28125 C 321.550781 380.28125 321.46875 380.242188 321.386719 380.242188 C 321.21875 380.15625 321.007812 380.074219 320.839844 379.988281 C 320.757812 379.949219 320.714844 379.949219 320.632812 379.90625 C 320.421875 379.78125 320.210938 379.695312 320.003906 379.570312 C 319.960938 379.527344 319.960938 379.527344 319.917969 379.527344 C 319.753906 379.402344 319.542969 379.277344 319.332031 379.152344 C 319.332031 379.109375 319.292969 379.070312 319.25 379.027344 C 319.082031 378.902344 318.914062 378.773438 318.746094 378.609375 C 318.707031 378.566406 318.664062 378.523438 318.578125 378.480469 C 318.453125 378.355469 318.285156 378.1875 318.160156 378.0625 C 318.078125 378.023438 318.035156 377.980469 317.992188 377.9375 C 317.867188 377.769531 317.742188 377.644531 317.660156 377.519531 C 317.574219 377.433594 317.492188 377.351562 317.449219 377.269531 C 317.363281 377.140625 317.28125 377.015625 317.199219 376.890625 C 317.113281 376.765625 317.070312 376.679688 316.988281 376.554688 C 316.90625 376.429688 316.820312 376.304688 316.777344 376.179688 C 316.695312 376.054688 316.652344 375.925781 316.570312 375.800781 C 316.527344 375.675781 316.484375 375.507812 316.445312 375.382812 C 316.402344 375.257812 316.359375 375.175781 316.316406 375.046875 C 316.277344 374.878906 316.191406 374.714844 316.152344 374.546875 C 316.152344 374.460938 316.109375 374.335938 316.066406 374.210938 C 316.066406 374.085938 316.023438 373.960938 316.023438 373.832031 C 315.984375 373.667969 315.984375 373.539062 315.941406 373.375 C 315.941406 373.289062 315.941406 373.164062 315.941406 373.082031 C 315.898438 372.914062 315.898438 372.703125 315.898438 372.535156 C 315.898438 372.453125 315.898438 372.367188 315.898438 372.242188 C 315.898438 372.074219 315.898438 371.90625 315.898438 371.699219 C 315.941406 371.613281 315.941406 371.488281 315.941406 371.40625 C 315.941406 371.238281 315.984375 371.027344 316.023438 370.859375 C 316.023438 370.777344 316.023438 370.734375 316.023438 370.652344 C 316.066406 370.441406 316.109375 370.234375 316.191406 370.023438 C 316.191406 370.023438 316.191406 369.980469 316.234375 369.9375 C 316.277344 369.730469 316.359375 369.480469 316.445312 369.269531 C 316.484375 369.1875 316.527344 369.144531 316.570312 369.058594 C 316.652344 368.890625 316.738281 368.683594 316.820312 368.472656 C 316.863281 368.433594 316.863281 368.433594 316.90625 368.390625 C 317.28125 367.679688 317.742188 367.007812 318.328125 366.464844 C 322.472656 362.316406 325.027344 356.621094 325.027344 350.257812 C 325.027344 337.527344 314.851562 327.394531 302.121094 327.394531 Z M 152.75 330.449219 C 152.75 330.449219 152.707031 330.449219 152.667969 330.449219 L 89.558594 330.449219 C 84.828125 330.28125 80.890625 334.09375 80.890625 338.824219 C 80.890625 343.597656 84.828125 347.410156 89.558594 347.242188 L 152.667969 347.242188 C 157.398438 347.410156 161.335938 343.640625 161.375 338.910156 C 161.375 334.175781 157.480469 330.324219 152.75 330.449219 Z M 416.820312 380.703125 L 416.695312 450.300781 C 416.695312 450.46875 416.695312 450.59375 416.695312 450.761719 C 416.484375 458.84375 406.101562 461.941406 401.453125 455.367188 C 397.433594 451.722656 392.113281 449.503906 386.210938 449.503906 C 373.4375 449.503906 363.304688 459.636719 363.304688 472.410156 C 363.304688 485.140625 373.4375 495.273438 386.210938 495.273438 C 392.113281 495.273438 397.390625 493.097656 401.453125 489.453125 C 406.140625 482.753906 416.695312 486.019531 416.695312 494.226562 C 416.695312 494.351562 416.695312 494.480469 416.695312 494.5625 C 416.695312 532.628906 416.820312 570.984375 416.863281 609.09375 L 466.359375 609.09375 C 468.203125 592.71875 473.980469 577.8125 483.363281 564.371094 C 494.417969 548.582031 508.949219 533.84375 524.273438 517.511719 C 554.929688 484.890625 588.765625 446.195312 605.847656 382.503906 C 606.015625 381.957031 606.101562 381.246094 606.226562 380.703125 L 552.039062 380.703125 C 553.628906 385.015625 554.507812 389.621094 554.507812 394.4375 C 554.507812 416.253906 536.628906 434.09375 514.851562 434.09375 C 493.035156 434.09375 475.152344 416.253906 475.152344 394.4375 C 475.152344 389.621094 476.035156 385.015625 477.625 380.703125 Z M 161.460938 396.613281 C 160.707031 396.613281 159.953125 396.738281 159.199219 396.90625 L 98.269531 413.238281 C 93.746094 414.410156 91.023438 419.019531 92.238281 423.539062 C 93.453125 428.0625 98.101562 430.703125 102.582031 429.445312 L 163.554688 413.113281 C 173.144531 410.683594 171.34375 396.574219 161.460938 396.613281 Z M 187.296875 458.257812 C 185.707031 458.214844 184.117188 458.632812 182.734375 459.429688 L 128.085938 490.960938 C 123.941406 493.222656 122.433594 498.457031 124.820312 502.5625 C 127.164062 506.664062 132.441406 507.960938 136.460938 505.492188 L 191.109375 473.960938 C 198.519531 469.8125 195.800781 458.550781 187.296875 458.257812 Z M 227.414062 511.1875 C 225.238281 511.269531 223.1875 512.152344 221.636719 513.742188 L 177.039062 558.339844 C 173.605469 561.5625 173.519531 567.007812 176.828125 570.359375 C 180.179688 573.707031 185.625 573.625 188.890625 570.191406 L 233.527344 525.59375 C 239.015625 520.273438 235.078125 510.976562 227.414062 511.1875 Z M 341.277344 625.84375 C 333.402344 625.84375 327.289062 631.957031 327.289062 639.832031 C 327.289062 647.703125 333.402344 653.773438 341.277344 653.773438 L 475.363281 653.773438 C 483.234375 653.773438 489.308594 647.703125 489.308594 639.832031 C 489.308594 631.957031 483.234375 625.84375 475.363281 625.84375 Z M 343.914062 670.527344 L 344.710938 736.355469 C 345.085938 771.53125 372.894531 799.503906 408.277344 799.503906 C 443.664062 799.503906 471.425781 771.53125 471.847656 736.355469 L 472.683594 670.527344 Z M 376.789062 726.933594 L 439.851562 726.933594 C 444.5 726.890625 448.3125 730.660156 448.3125 735.308594 C 448.3125 739.957031 444.5 743.726562 439.851562 743.683594 L 376.789062 743.683594 C 372.097656 743.726562 368.328125 739.957031 368.328125 735.308594 C 368.328125 730.660156 372.097656 726.890625 376.789062 726.933594 Z M 376.789062 726.933594 " fill-opacity="1" fill-rule="nonzero"/></g></svg>