<svg xmlns="http://www.w3.org/2000/svg" xmlns:xlink="http://www.w3.org/1999/xlink" width="1080" zoomAndPan="magnify" viewBox="0 0 810 809.999993" height="1080" preserveAspectRatio="xMidYMid meet" version="1.0"><defs><g/><clipPath id="fb4bb5bc9c"><path d="M 82.414062 11.605469 L 727 11.605469 L 727 798.355469 L 82.414062 798.355469 Z M 82.414062 11.605469 " clip-rule="nonzero"/></clipPath></defs><g fill="#ffffff" fill-opacity="1"><g transform="translate(461.257444, 542.967761)"><g><path d="M 12.453125 0 L 11.96875 -2.28125 L 11.84375 -2.28125 C 11.050781 -1.28125 10.253906 -0.597656 9.453125 -0.234375 C 8.660156 0.117188 7.664062 0.296875 6.46875 0.296875 C 4.882812 0.296875 3.640625 -0.113281 2.734375 -0.9375 C 1.828125 -1.757812 1.375 -2.925781 1.375 -4.4375 C 1.375 -7.675781 3.96875 -9.375 9.15625 -9.53125 L 11.875 -9.625 L 11.875 -10.625 C 11.875 -11.882812 11.601562 -12.8125 11.0625 -13.40625 C 10.519531 -14.007812 9.65625 -14.3125 8.46875 -14.3125 C 7.125 -14.3125 5.609375 -13.898438 3.921875 -13.078125 L 3.171875 -14.9375 C 3.960938 -15.375 4.828125 -15.710938 5.765625 -15.953125 C 6.710938 -16.191406 7.660156 -16.3125 8.609375 -16.3125 C 10.523438 -16.3125 11.941406 -15.882812 12.859375 -15.03125 C 13.785156 -14.1875 14.25 -12.828125 14.25 -10.953125 L 14.25 0 Z M 6.953125 -1.71875 C 8.472656 -1.71875 9.664062 -2.128906 10.53125 -2.953125 C 11.394531 -3.785156 11.828125 -4.953125 11.828125 -6.453125 L 11.828125 -7.890625 L 9.390625 -7.796875 C 7.453125 -7.722656 6.054688 -7.421875 5.203125 -6.890625 C 4.347656 -6.359375 3.921875 -5.53125 3.921875 -4.40625 C 3.921875 -3.53125 4.1875 -2.863281 4.71875 -2.40625 C 5.25 -1.945312 5.992188 -1.71875 6.953125 -1.71875 Z M 6.953125 -1.71875 "/></g></g></g><g clip-path="url(#fb4bb5bc9c)"><path fill="#ffffff" d="M 656.691406 348.609375 C 648.46875 352.816406 639.5 356.855469 630.023438 360.609375 C 628.1875 361.335938 626.296875 361.679688 624.4375 361.679688 C 618.355469 361.679688 612.613281 357.996094 610.246094 351.960938 C 607.164062 344.078125 611.011719 335.171875 618.847656 332.070312 C 627.425781 328.671875 635.503906 325.035156 642.867188 321.269531 C 650.371094 317.429688 659.546875 320.433594 663.367188 327.984375 C 667.183594 335.535156 664.195312 344.769531 656.691406 348.609375 M 281.078125 372.265625 C 279.65625 379.589844 273.277344 384.671875 266.128906 384.671875 C 265.160156 384.671875 264.179688 384.578125 263.191406 384.382812 C 251.570312 382.101562 240.179688 379.507812 229.339844 376.671875 C 221.1875 374.542969 216.296875 366.167969 218.417969 357.972656 C 220.535156 349.773438 228.855469 344.847656 237.007812 346.984375 C 247.246094 349.660156 258.019531 352.113281 269.03125 354.273438 C 277.296875 355.898438 282.691406 363.953125 281.078125 372.265625 M 199.425781 351.960938 C 197.066406 357.996094 191.320312 361.679688 185.238281 361.679688 C 183.378906 361.679688 181.488281 361.335938 179.65625 360.609375 C 170.175781 356.855469 161.203125 352.816406 152.984375 348.609375 C 145.476562 344.769531 142.488281 335.535156 146.308594 327.984375 C 150.125 320.433594 159.308594 317.429688 166.8125 321.269531 C 174.167969 325.035156 182.25 328.671875 190.828125 332.070312 C 198.664062 335.171875 202.511719 344.078125 199.425781 351.960938 M 650.820312 267.941406 C 682.882812 253.65625 708.335938 236.863281 726.546875 218.324219 L 726.546875 335.304688 C 717.839844 362.96875 687 390.039062 638.964844 411.4375 C 576.679688 439.179688 493.53125 454.460938 404.839844 454.460938 C 316.152344 454.460938 233.007812 439.179688 170.71875 411.4375 C 122.6875 390.039062 91.84375 362.972656 83.136719 335.308594 L 83.136719 218.324219 C 101.347656 236.863281 126.800781 253.65625 158.863281 267.941406 C 224.816406 297.316406 312.175781 313.5 404.839844 313.5 C 497.511719 313.5 584.867188 297.316406 650.820312 267.941406 Z M 626.941406 47.230469 C 691.320312 72.089844 726.777344 107.191406 726.777344 146.070312 C 726.777344 184.949219 691.320312 220.050781 626.941406 244.910156 C 567.378906 267.914062 488.5 280.578125 404.835938 280.578125 C 321.171875 280.578125 242.292969 267.914062 182.730469 244.910156 C 118.351562 220.050781 82.898438 184.949219 82.898438 146.070312 C 82.898438 107.191406 118.351562 72.089844 182.730469 47.230469 C 242.292969 24.230469 321.171875 11.5625 404.835938 11.5625 C 488.5 11.5625 567.378906 24.230469 626.941406 47.230469 Z M 663.367188 498.886719 C 667.183594 506.4375 664.195312 515.671875 656.691406 519.515625 C 648.46875 523.722656 639.496094 527.757812 630.023438 531.511719 C 628.1875 532.242188 626.296875 532.585938 624.4375 532.585938 C 618.359375 532.585938 612.613281 528.902344 610.246094 522.863281 C 607.164062 514.984375 611.011719 506.078125 618.847656 502.972656 C 627.421875 499.574219 635.5 495.941406 642.867188 492.171875 C 650.371094 488.332031 659.546875 491.339844 663.367188 498.886719 M 281.078125 543.171875 C 279.65625 550.492188 273.277344 555.574219 266.128906 555.574219 C 265.160156 555.574219 264.179688 555.480469 263.191406 555.285156 C 251.570312 553.003906 240.179688 550.410156 229.339844 547.578125 C 221.191406 545.445312 216.300781 537.074219 218.417969 528.875 C 220.535156 520.675781 228.855469 515.757812 237.007812 517.886719 C 247.246094 520.5625 258.019531 523.015625 269.035156 525.179688 C 277.296875 526.800781 282.691406 534.859375 281.078125 543.171875 M 199.425781 522.863281 C 197.066406 528.898438 191.320312 532.585938 185.238281 532.585938 C 183.378906 532.585938 181.488281 532.242188 179.65625 531.511719 C 170.179688 527.757812 161.207031 523.722656 152.984375 519.511719 C 145.476562 515.671875 142.488281 506.4375 146.308594 498.886719 C 150.128906 491.335938 159.308594 488.332031 166.8125 492.171875 C 174.171875 495.941406 182.253906 499.574219 190.828125 502.972656 C 198.664062 506.078125 202.511719 514.980469 199.425781 522.863281 M 404.84375 486.726562 C 312.171875 486.726562 224.816406 470.542969 158.863281 441.167969 C 126.800781 426.882812 101.347656 410.089844 83.140625 391.550781 L 83.140625 508.535156 C 91.84375 536.199219 122.6875 563.269531 170.71875 584.664062 C 233.003906 612.410156 316.152344 627.6875 404.84375 627.6875 C 493.53125 627.6875 576.679688 612.410156 638.964844 584.664062 C 687 563.265625 717.839844 536.195312 726.546875 508.535156 L 726.546875 391.550781 C 708.335938 410.089844 682.882812 426.882812 650.820312 441.167969 C 584.867188 470.542969 497.511719 486.726562 404.84375 486.726562 M 663.367188 675.726562 C 667.183594 683.277344 664.195312 692.511719 656.691406 696.351562 C 648.472656 700.558594 639.5 704.597656 630.023438 708.355469 C 628.1875 709.082031 626.296875 709.425781 624.4375 709.425781 C 618.355469 709.425781 612.613281 705.738281 610.246094 699.703125 C 607.164062 691.824219 611.011719 682.917969 618.847656 679.8125 C 627.425781 676.414062 635.507812 672.78125 642.863281 669.015625 C 650.371094 665.171875 659.546875 668.179688 663.367188 675.726562 M 281.078125 720.011719 C 279.65625 727.332031 273.273438 732.414062 266.128906 732.414062 C 265.160156 732.414062 264.179688 732.320312 263.191406 732.128906 C 251.570312 729.84375 240.179688 727.25 229.339844 724.417969 C 221.191406 722.285156 216.300781 713.914062 218.417969 705.714844 C 220.535156 697.519531 228.855469 692.597656 237.007812 694.726562 C 247.246094 697.402344 258.019531 699.855469 269.035156 702.019531 C 277.296875 703.640625 282.691406 711.699219 281.078125 720.011719 M 199.425781 699.703125 C 197.066406 705.738281 191.320312 709.425781 185.238281 709.425781 C 183.378906 709.425781 181.488281 709.082031 179.65625 708.355469 C 170.171875 704.597656 161.199219 700.558594 152.980469 696.351562 C 145.476562 692.511719 142.488281 683.277344 146.308594 675.726562 C 150.128906 668.175781 159.308594 665.171875 166.8125 669.015625 C 174.167969 672.78125 182.25 676.414062 190.828125 679.8125 C 198.664062 682.917969 202.511719 691.824219 199.425781 699.703125 M 404.839844 657.167969 C 312.171875 657.167969 224.816406 640.988281 158.863281 611.609375 C 126.800781 597.328125 101.347656 580.53125 83.136719 561.996094 L 83.136719 678.980469 C 91.84375 706.640625 122.6875 733.710938 170.71875 755.105469 C 233.003906 782.851562 316.152344 798.132812 404.839844 798.132812 C 493.53125 798.132812 576.679688 782.851562 638.964844 755.105469 C 687 733.710938 717.839844 706.640625 726.546875 678.976562 L 726.546875 561.996094 C 708.335938 580.53125 682.882812 597.328125 650.820312 611.609375 C 584.867188 640.988281 497.511719 657.167969 404.839844 657.167969 " fill-opacity="1" fill-rule="evenodd"/></g></svg>