<svg xmlns="http://www.w3.org/2000/svg" xmlns:xlink="http://www.w3.org/1999/xlink" width="1080" zoomAndPan="magnify" viewBox="0 0 810 809.999993" height="1080" preserveAspectRatio="xMidYMid meet" version="1.0"><defs><g/><clipPath id="39d5cc1f63"><path d="M 9.292969 9.292969 L 800.542969 9.292969 L 800.542969 800.542969 L 9.292969 800.542969 Z M 9.292969 9.292969 " clip-rule="nonzero"/></clipPath></defs><g fill="#ffffff" fill-opacity="1"><g transform="translate(423.98751, 474.639572)"><g><path d="M 12.453125 0 L 11.96875 -2.28125 L 11.84375 -2.28125 C 11.050781 -1.28125 10.253906 -0.597656 9.453125 -0.234375 C 8.660156 0.117188 7.664062 0.296875 6.46875 0.296875 C 4.882812 0.296875 3.640625 -0.113281 2.734375 -0.9375 C 1.828125 -1.757812 1.375 -2.925781 1.375 -4.4375 C 1.375 -7.675781 3.96875 -9.375 9.15625 -9.53125 L 11.875 -9.625 L 11.875 -10.625 C 11.875 -11.882812 11.601562 -12.8125 11.0625 -13.40625 C 10.519531 -14.007812 9.65625 -14.3125 8.46875 -14.3125 C 7.125 -14.3125 5.609375 -13.898438 3.921875 -13.078125 L 3.171875 -14.9375 C 3.960938 -15.375 4.828125 -15.710938 5.765625 -15.953125 C 6.710938 -16.191406 7.660156 -16.3125 8.609375 -16.3125 C 10.523438 -16.3125 11.941406 -15.882812 12.859375 -15.03125 C 13.785156 -14.1875 14.25 -12.828125 14.25 -10.953125 L 14.25 0 Z M 6.953125 -1.71875 C 8.472656 -1.71875 9.664062 -2.128906 10.53125 -2.953125 C 11.394531 -3.785156 11.828125 -4.953125 11.828125 -6.453125 L 11.828125 -7.890625 L 9.390625 -7.796875 C 7.453125 -7.722656 6.054688 -7.421875 5.203125 -6.890625 C 4.347656 -6.359375 3.921875 -5.53125 3.921875 -4.40625 C 3.921875 -3.53125 4.1875 -2.863281 4.71875 -2.40625 C 5.25 -1.945312 5.992188 -1.71875 6.953125 -1.71875 Z M 6.953125 -1.71875 "/></g></g></g><path fill="#ffffff" d="M 339.183594 494.132812 L 305.027344 494.132812 C 289.199219 494.132812 275.871094 480.804688 275.871094 464.976562 L 275.871094 404.160156 C 275.871094 388.332031 289.199219 375.003906 305.027344 375.003906 L 339.183594 375.003906 C 355.011719 375.003906 368.339844 388.332031 368.339844 404.160156 L 368.339844 464.976562 C 368.339844 480.804688 355.84375 494.132812 339.183594 494.132812 Z M 339.183594 494.132812 " fill-opacity="1" fill-rule="nonzero"/><path fill="#ffffff" d="M 484.96875 494.132812 L 450.8125 494.132812 C 434.984375 494.132812 421.65625 480.804688 421.65625 464.976562 L 421.65625 404.160156 C 421.65625 388.332031 434.984375 375.003906 450.8125 375.003906 L 484.96875 375.003906 C 500.796875 375.003906 514.125 388.332031 514.125 404.160156 L 514.125 464.976562 C 514.125 480.804688 500.796875 494.132812 484.96875 494.132812 Z M 484.96875 494.132812 " fill-opacity="1" fill-rule="nonzero"/><g clip-path="url(#39d5cc1f63)"><path fill="#ffffff" d="M 404.996094 9.292969 C 186.734375 9.292969 9.292969 186.734375 9.292969 404.996094 C 9.292969 623.253906 186.734375 800.695312 404.996094 800.695312 L 738.21875 800.695312 C 773.207031 800.695312 800.695312 772.371094 800.695312 738.21875 L 800.695312 404.996094 C 800.695312 186.734375 623.253906 9.292969 404.996094 9.292969 Z M 682.402344 460.808594 C 682.402344 486.632812 661.574219 506.628906 636.585938 506.628906 L 615.757812 506.628906 C 614.089844 506.628906 611.59375 506.628906 609.925781 505.792969 C 576.605469 576.605469 497.464844 625.753906 404.996094 625.753906 C 312.527344 625.753906 233.386719 576.605469 200.894531 506.628906 L 180.070312 506.628906 C 154.246094 506.628906 134.25 485.800781 134.25 460.808594 L 134.25 408.328125 C 134.25 382.503906 155.078125 362.507812 180.070312 362.507812 L 200.0625 362.507812 C 228.386719 302.527344 291.699219 257.542969 368.339844 246.714844 L 368.339844 196.730469 C 352.511719 187.566406 341.683594 170.90625 341.683594 150.914062 C 341.683594 121.757812 365.007812 98.429688 394.164062 98.429688 C 423.320312 98.429688 446.648438 121.757812 446.648438 150.914062 C 446.648438 170.074219 435.816406 187.566406 419.988281 196.730469 L 419.988281 244.214844 C 505.792969 250.046875 577.4375 296.699219 608.261719 362.507812 C 609.925781 362.507812 612.425781 361.675781 614.089844 361.675781 L 634.917969 361.675781 C 660.742188 361.675781 680.734375 382.503906 680.734375 407.492188 L 680.734375 460.808594 Z M 682.402344 460.808594 " fill-opacity="1" fill-rule="nonzero"/></g></svg>