<svg xmlns="http://www.w3.org/2000/svg" xmlns:xlink="http://www.w3.org/1999/xlink" width="1080" zoomAndPan="magnify" viewBox="0 0 810 809.999993" height="1080" preserveAspectRatio="xMidYMid meet" version="1.0"><defs><g/><clipPath id="4d33695390"><path d="M 285 288 L 806.667969 288 L 806.667969 810 L 285 810 Z M 285 288 " clip-rule="nonzero"/></clipPath><clipPath id="ce7e43851f"><path d="M 3.417969 250 L 131 250 L 131 294 L 3.417969 294 Z M 3.417969 250 " clip-rule="nonzero"/></clipPath><clipPath id="b032bd874b"><path d="M 247 6.832031 L 291 6.832031 L 291 134 L 247 134 Z M 247 6.832031 " clip-rule="nonzero"/></clipPath></defs><g fill="#ffffff" fill-opacity="1"><g transform="translate(423.98751, 474.639572)"><g><path d="M 12.453125 0 L 11.96875 -2.28125 L 11.84375 -2.28125 C 11.050781 -1.28125 10.253906 -0.597656 9.453125 -0.234375 C 8.660156 0.117188 7.664062 0.296875 6.46875 0.296875 C 4.882812 0.296875 3.640625 -0.113281 2.734375 -0.9375 C 1.828125 -1.757812 1.375 -2.925781 1.375 -4.4375 C 1.375 -7.675781 3.96875 -9.375 9.15625 -9.53125 L 11.875 -9.625 L 11.875 -10.625 C 11.875 -11.882812 11.601562 -12.8125 11.0625 -13.40625 C 10.519531 -14.007812 9.65625 -14.3125 8.46875 -14.3125 C 7.125 -14.3125 5.609375 -13.898438 3.921875 -13.078125 L 3.171875 -14.9375 C 3.960938 -15.375 4.828125 -15.710938 5.765625 -15.953125 C 6.710938 -16.191406 7.660156 -16.3125 8.609375 -16.3125 C 10.523438 -16.3125 11.941406 -15.882812 12.859375 -15.03125 C 13.785156 -14.1875 14.25 -12.828125 14.25 -10.953125 L 14.25 0 Z M 6.953125 -1.71875 C 8.472656 -1.71875 9.664062 -2.128906 10.53125 -2.953125 C 11.394531 -3.785156 11.828125 -4.953125 11.828125 -6.453125 L 11.828125 -7.890625 L 9.390625 -7.796875 C 7.453125 -7.722656 6.054688 -7.421875 5.203125 -6.890625 C 4.347656 -6.359375 3.921875 -5.53125 3.921875 -4.40625 C 3.921875 -3.53125 4.1875 -2.863281 4.71875 -2.40625 C 5.25 -1.945312 5.992188 -1.71875 6.953125 -1.71875 Z M 6.953125 -1.71875 "/></g></g></g><g clip-path="url(#4d33695390)"><path fill="#ffffff" d="M 650.621094 578.722656 C 646.152344 574.253906 643.921875 567.976562 644.558594 561.59375 C 645.195312 555.214844 648.601562 549.574219 653.917969 545.957031 L 806.039062 445.113281 L 285.636719 288.949219 L 441.800781 809.457031 L 542.648438 657.230469 C 546.160156 651.910156 551.902344 648.507812 558.285156 647.867188 C 564.5625 647.230469 570.945312 649.464844 575.414062 654.039062 L 705.195312 783.714844 C 713.492188 792.011719 727 792.011719 735.300781 783.714844 L 780.402344 738.609375 C 784.445312 734.566406 786.679688 729.246094 786.679688 723.609375 C 786.679688 717.867188 784.445312 712.546875 780.402344 708.503906 Z M 650.621094 578.722656 " fill-opacity="1" fill-rule="nonzero"/></g><path fill="#ffffff" d="M 110.859375 84.167969 C 102.5625 75.871094 89.050781 75.871094 80.753906 84.167969 C 72.457031 92.46875 72.457031 105.976562 80.753906 114.273438 L 140.964844 174.484375 C 145.113281 178.632812 150.539062 180.761719 155.960938 180.761719 C 161.386719 180.761719 166.8125 178.632812 170.960938 174.484375 C 179.257812 166.1875 179.257812 152.675781 170.960938 144.378906 Z M 110.859375 84.167969 " fill-opacity="1" fill-rule="nonzero"/><path fill="#ffffff" d="M 381.699219 180.65625 C 387.121094 180.65625 392.546875 178.527344 396.695312 174.378906 L 456.90625 114.167969 C 465.203125 105.871094 465.203125 92.359375 456.90625 84.0625 C 448.609375 75.765625 435.097656 75.765625 426.800781 84.0625 L 366.59375 144.273438 C 358.292969 152.570312 358.292969 166.082031 366.59375 174.378906 C 370.847656 178.632812 376.273438 180.65625 381.699219 180.65625 Z M 381.699219 180.65625 " fill-opacity="1" fill-rule="nonzero"/><path fill="#ffffff" d="M 140.964844 370.007812 L 80.753906 430.21875 C 72.457031 438.515625 72.457031 452.027344 80.753906 460.324219 C 84.902344 464.472656 90.328125 466.601562 95.753906 466.601562 C 101.179688 466.601562 106.601562 464.472656 110.753906 460.324219 L 170.960938 400.113281 C 179.257812 391.816406 179.257812 378.304688 170.960938 370.007812 C 162.769531 361.710938 149.261719 361.710938 140.964844 370.007812 Z M 140.964844 370.007812 " fill-opacity="1" fill-rule="nonzero"/><g clip-path="url(#ce7e43851f)"><path fill="#ffffff" d="M 130.539062 272.246094 C 130.539062 260.546875 120.964844 250.972656 109.261719 250.972656 L 24.160156 250.972656 C 12.457031 250.972656 2.882812 260.546875 2.882812 272.246094 C 2.882812 283.949219 12.457031 293.523438 24.160156 293.523438 L 109.261719 293.523438 C 121.070312 293.523438 130.539062 283.949219 130.539062 272.246094 Z M 130.539062 272.246094 " fill-opacity="1" fill-rule="nonzero"/></g><g clip-path="url(#b032bd874b)"><path fill="#ffffff" d="M 290.105469 27.578125 C 290.105469 15.875 280.53125 6.300781 268.832031 6.300781 C 257.128906 6.300781 247.554688 15.875 247.554688 27.578125 L 247.554688 112.679688 C 247.554688 124.382812 257.128906 133.953125 268.832031 133.953125 C 280.53125 133.953125 290.105469 124.382812 290.105469 112.679688 Z M 290.105469 27.578125 " fill-opacity="1" fill-rule="nonzero"/></g></svg>