<svg xmlns="http://www.w3.org/2000/svg" xmlns:xlink="http://www.w3.org/1999/xlink" width="1080" zoomAndPan="magnify" viewBox="0 0 810 809.999993" height="1080" preserveAspectRatio="xMidYMid meet" version="1.0"><defs><g/><clipPath id="0158df4497"><path d="M 92 19.878906 L 718 19.878906 L 718 291 L 92 291 Z M 92 19.878906 " clip-rule="nonzero"/></clipPath><clipPath id="8cd5345574"><path d="M 117.1875 551.355469 L 417.695312 551.355469 L 417.695312 764.628906 L 117.1875 764.628906 Z M 117.1875 551.355469 " clip-rule="nonzero"/></clipPath><clipPath id="c1c0ec9be8"><path d="M 6.03125 276 L 133 276 L 133 544 L 6.03125 544 Z M 6.03125 276 " clip-rule="nonzero"/></clipPath></defs><g clip-path="url(#0158df4497)"><path fill="#ffffff" d="M 679.238281 266.441406 L 682.824219 266.441406 C 697.183594 266.441406 709.109375 277.039062 711.199219 290.820312 C 713.355469 290.382812 715.535156 290.042969 717.734375 289.796875 C 710.566406 265.5 701.15625 242.074219 689.675781 219.964844 C 682.039062 205.257812 673.476562 191.128906 664.074219 177.683594 C 668.988281 166.71875 667.335938 154.226562 659.679688 144.933594 C 657.03125 141.71875 654.300781 138.515625 651.570312 135.40625 C 585.953125 60.902344 498.382812 19.875 404.988281 19.875 C 311.601562 19.875 224.042969 60.902344 158.433594 135.40625 C 155.695312 138.515625 152.964844 141.71875 150.320312 144.921875 C 142.664062 154.21875 141.007812 166.710938 145.917969 177.683594 C 136.511719 191.128906 127.945312 205.257812 120.308594 219.964844 C 108.824219 242.074219 99.417969 265.496094 92.246094 289.789062 C 94.449219 290.042969 96.636719 290.378906 98.800781 290.820312 C 100.890625 277.039062 112.816406 266.441406 127.167969 266.441406 L 130.753906 266.441406 C 140.851562 240.972656 153.488281 217.277344 168.285156 195.730469 C 170.363281 196.148438 172.503906 196.375 174.691406 196.375 C 184.132812 196.375 193.007812 192.171875 199.042969 184.847656 C 232.785156 143.875 275.355469 113.519531 322.144531 97.054688 C 348.867188 87.632812 376.738281 82.855469 404.988281 82.855469 C 482.324219 82.855469 557.390625 120.0625 610.933594 184.945312 C 616.929688 192.210938 625.777344 196.375 635.199219 196.375 L 635.304688 196.375 C 637.492188 196.375 639.628906 196.148438 641.699219 195.730469 C 656.4375 217.195312 669.09375 240.863281 679.238281 266.441406 " fill-opacity="1" fill-rule="nonzero"/></g><g clip-path="url(#8cd5345574)"><path fill="#ffffff" d="M 413.636719 719.921875 L 413.628906 719.902344 C 408.296875 710.328125 398.164062 704.378906 387.191406 704.378906 C 377.449219 704.378906 368.246094 709.113281 362.574219 717.042969 L 358.855469 722.242188 L 352.574219 721.054688 C 297.628906 710.636719 245.488281 682.9375 201.796875 640.949219 C 175.546875 615.742188 153.175781 586.347656 135.25 553.511719 L 127.167969 553.511719 C 123.640625 553.511719 120.273438 552.800781 117.207031 551.511719 C 123.914062 564.605469 131.308594 577.253906 139.347656 589.355469 C 154.496094 612.167969 172.003906 633.175781 191.382812 651.792969 C 214.472656 673.972656 239.824219 692.417969 266.730469 706.613281 C 293.386719 720.679688 321.511719 730.550781 350.328125 735.945312 L 356.40625 737.082031 L 358.105469 743.027344 C 361.796875 755.929688 373.757812 764.941406 387.191406 764.941406 C 399.511719 764.941406 410.5 757.582031 415.179688 746.195312 C 416.703125 742.515625 417.472656 738.636719 417.472656 734.660156 C 417.472656 729.488281 416.148438 724.394531 413.644531 719.9375 L 413.636719 719.921875 " fill-opacity="1" fill-rule="nonzero"/></g><g clip-path="url(#c1c0ec9be8)"><path fill="#ffffff" d="M 129.101562 543.484375 C 131.21875 543.484375 132.953125 541.753906 132.953125 539.636719 L 132.953125 280.160156 C 132.953125 278.039062 131.214844 276.304688 129.097656 276.304688 L 126.953125 276.304688 C 113.746094 276.304688 102.9375 287.113281 102.9375 300.320312 C 96.453125 297.226562 89.242188 295.390625 81.628906 295.15625 C 80.902344 295.128906 80.1875 295.117188 79.46875 295.117188 C 77.421875 295.117188 75.390625 295.207031 73.382812 295.390625 C 43.429688 297.984375 18.453125 319.59375 11.136719 348.277344 C 9.890625 353.164062 9.152344 358.253906 8.996094 363.484375 L 6.269531 452.515625 C 6.242188 453.425781 6.234375 454.328125 6.242188 455.234375 C 6.527344 492.792969 36.742188 524 74.601562 525.152344 C 75.148438 525.171875 75.691406 525.175781 76.238281 525.175781 C 79.910156 525.175781 83.5 524.804688 86.976562 524.089844 C 92.664062 522.914062 98.035156 520.835938 102.9375 518.003906 C 102.9375 532.019531 114.40625 543.484375 128.421875 543.484375 L 129.101562 543.484375 " fill-opacity="1" fill-rule="nonzero"/></g><path fill="#ffffff" d="M 803.726562 452.515625 L 800.996094 363.484375 C 800.839844 358.253906 800.105469 353.164062 798.855469 348.277344 C 791.542969 319.589844 766.554688 297.980469 736.59375 295.386719 C 734.589844 295.207031 732.566406 295.121094 730.523438 295.121094 C 729.804688 295.121094 729.085938 295.132812 728.367188 295.15625 C 720.75 295.390625 713.535156 297.226562 707.054688 300.324219 C 707.054688 287.113281 696.246094 276.304688 683.039062 276.304688 L 680.890625 276.304688 C 678.773438 276.304688 677.042969 278.039062 677.042969 280.160156 L 677.042969 340.371094 C 676.523438 343.628906 676.296875 346.980469 676.402344 350.398438 L 677.042969 371.324219 L 677.042969 539.636719 C 677.042969 541.753906 678.773438 543.488281 680.886719 543.488281 L 681.574219 543.488281 C 695.585938 543.488281 707.054688 532.019531 707.054688 518.003906 C 708.167969 518.648438 709.300781 519.246094 710.453125 519.8125 C 717.53125 523.25 725.441406 525.179688 733.765625 525.179688 C 734.300781 525.179688 734.851562 525.171875 735.398438 525.152344 C 773.25 524.003906 803.464844 492.792969 803.75 455.234375 C 803.757812 454.328125 803.75 453.429688 803.726562 452.515625 " fill-opacity="1" fill-rule="nonzero"/><path fill="#ffffff" d="M 521.082031 384.421875 C 520.175781 402.234375 505.707031 416.707031 487.898438 417.609375 C 467.09375 418.660156 450.003906 401.574219 451.054688 380.777344 C 451.957031 362.964844 466.429688 348.488281 484.242188 347.582031 C 505.046875 346.527344 522.132812 363.621094 521.082031 384.421875 Z M 440.007812 384.421875 C 439.101562 402.234375 424.628906 416.707031 406.820312 417.609375 C 386.015625 418.660156 368.929688 401.574219 369.984375 380.773438 C 370.886719 362.960938 385.359375 348.488281 403.171875 347.582031 C 423.976562 346.53125 441.0625 363.621094 440.007812 384.421875 Z M 358.933594 384.421875 C 358.03125 402.234375 343.558594 416.707031 325.746094 417.609375 C 304.945312 418.660156 287.855469 401.574219 288.910156 380.773438 C 289.8125 362.960938 304.285156 348.488281 322.097656 347.582031 C 342.902344 346.527344 359.988281 363.621094 358.933594 384.421875 Z M 631.304688 380.078125 C 631.304688 264.960938 529.984375 171.640625 404.996094 171.640625 C 280.007812 171.640625 178.6875 264.960938 178.6875 380.078125 C 178.6875 495.199219 280.007812 588.523438 404.996094 588.523438 C 437.558594 588.523438 468.507812 582.175781 496.484375 570.765625 C 508.128906 566.015625 521.015625 565.21875 533.160156 568.476562 L 608.730469 588.722656 C 616.746094 590.871094 624.078125 583.539062 621.929688 575.523438 L 604.664062 511.082031 C 600.90625 497.0625 602.644531 482.179688 609.328125 469.292969 C 623.34375 442.25 631.304688 412.050781 631.304688 380.078125 " fill-opacity="1" fill-rule="nonzero"/><g fill="#ffffff" fill-opacity="1"><g transform="translate(423.98751, 474.639572)"><g><path d="M 12.453125 0 L 11.96875 -2.28125 L 11.84375 -2.28125 C 11.050781 -1.28125 10.253906 -0.597656 9.453125 -0.234375 C 8.660156 0.117188 7.664062 0.296875 6.46875 0.296875 C 4.882812 0.296875 3.640625 -0.113281 2.734375 -0.9375 C 1.828125 -1.757812 1.375 -2.925781 1.375 -4.4375 C 1.375 -7.675781 3.96875 -9.375 9.15625 -9.53125 L 11.875 -9.625 L 11.875 -10.625 C 11.875 -11.882812 11.601562 -12.8125 11.0625 -13.40625 C 10.519531 -14.007812 9.65625 -14.3125 8.46875 -14.3125 C 7.125 -14.3125 5.609375 -13.898438 3.921875 -13.078125 L 3.171875 -14.9375 C 3.960938 -15.375 4.828125 -15.710938 5.765625 -15.953125 C 6.710938 -16.191406 7.660156 -16.3125 8.609375 -16.3125 C 10.523438 -16.3125 11.941406 -15.882812 12.859375 -15.03125 C 13.785156 -14.1875 14.25 -12.828125 14.25 -10.953125 L 14.25 0 Z M 6.953125 -1.71875 C 8.472656 -1.71875 9.664062 -2.128906 10.53125 -2.953125 C 11.394531 -3.785156 11.828125 -4.953125 11.828125 -6.453125 L 11.828125 -7.890625 L 9.390625 -7.796875 C 7.453125 -7.722656 6.054688 -7.421875 5.203125 -6.890625 C 4.347656 -6.359375 3.921875 -5.53125 3.921875 -4.40625 C 3.921875 -3.53125 4.1875 -2.863281 4.71875 -2.40625 C 5.25 -1.945312 5.992188 -1.71875 6.953125 -1.71875 Z M 6.953125 -1.71875 "/></g></g></g></svg>