<svg xmlns="http://www.w3.org/2000/svg" xmlns:xlink="http://www.w3.org/1999/xlink" width="1080" zoomAndPan="magnify" viewBox="0 0 810 809.999993" height="1080" preserveAspectRatio="xMidYMid meet" version="1.0"><defs><g/><clipPath id="2f244c4456"><path d="M 107 81 L 702 81 L 702 704.25 L 107 704.25 Z M 107 81 " clip-rule="nonzero"/></clipPath><clipPath id="2d97f3f6a7"><path d="M 13.753906 341 L 81 341 L 81 557 L 13.753906 557 Z M 13.753906 341 " clip-rule="nonzero"/></clipPath><clipPath id="e170d67d3b"><path d="M 728 341 L 796.003906 341 L 796.003906 557 L 728 557 Z M 728 341 " clip-rule="nonzero"/></clipPath></defs><g clip-path="url(#2f244c4456)"><path fill="#ffffff" d="M 570.25 704.007812 L 239.285156 704.007812 C 166.402344 704.007812 107.269531 644.875 107.269531 572.445312 L 107.269531 357.917969 C 107.269531 285.03125 166.402344 225.898438 239.285156 225.898438 L 390.558594 225.898438 L 391.015625 175.472656 C 371.304688 169.515625 356.636719 151.179688 356.636719 129.175781 C 356.636719 102.589844 378.640625 81.042969 405.226562 81.042969 C 431.8125 81.042969 453.816406 102.589844 453.816406 129.175781 C 453.816406 151.179688 438.691406 169.972656 418.519531 175.933594 L 418.0625 225.898438 L 570.25 225.898438 C 642.675781 225.898438 701.808594 285.03125 701.808594 357.917969 L 701.808594 572.90625 C 701.808594 645.332031 642.675781 704.007812 570.25 704.007812 Z M 280.542969 495.894531 C 241.578125 495.894531 210.867188 465.179688 210.867188 426.675781 C 210.867188 387.710938 241.578125 357 280.542969 357 C 319.507812 357 349.761719 387.710938 349.761719 426.675781 C 349.761719 465.179688 319.507812 495.894531 280.542969 495.894531 Z M 280.542969 384.503906 C 256.707031 384.503906 238.371094 402.839844 238.371094 426.675781 C 238.371094 450.054688 256.707031 468.390625 280.542969 468.390625 C 303.921875 468.390625 322.714844 450.054688 322.714844 426.675781 C 322.714844 402.839844 303.921875 384.503906 280.542969 384.503906 Z M 529.453125 493.144531 C 490.488281 493.144531 459.316406 461.972656 459.316406 423.46875 C 459.316406 384.960938 490.488281 353.789062 529.453125 353.789062 C 567.5 353.789062 598.671875 384.960938 598.671875 423.46875 C 598.671875 461.972656 567.5 493.144531 529.453125 493.144531 Z M 529.453125 381.292969 C 505.617188 381.292969 486.820312 400.546875 486.820312 423.46875 C 486.820312 446.84375 505.617188 466.097656 529.453125 466.097656 C 552.832031 466.097656 571.167969 446.84375 571.167969 423.46875 C 571.167969 399.628906 552.371094 381.292969 529.453125 381.292969 Z M 399.726562 576.570312 C 373.597656 576.570312 350.675781 564.195312 337.84375 553.195312 C 331.882812 548.152344 331.425781 538.984375 336.46875 533.941406 C 341.507812 528.441406 349.761719 527.523438 355.71875 533.023438 C 359.84375 536.691406 399.726562 568.320312 437.773438 533.484375 C 443.273438 528.441406 451.523438 528.441406 457.484375 533.941406 C 462.527344 539.898438 462.527344 548.152344 457.027344 553.652344 C 437.773438 570.15625 418.0625 576.570312 399.726562 576.570312 Z M 399.726562 576.570312 " fill-opacity="1" fill-rule="evenodd"/></g><g clip-path="url(#2d97f3f6a7)"><path fill="#ffffff" d="M 79.765625 556.859375 L 74.265625 556.859375 C 41.257812 556.859375 13.753906 529.816406 13.753906 496.351562 L 13.753906 402.839844 C 13.753906 369.375 41.257812 341.871094 74.265625 341.871094 L 80.679688 341.871094 C 80.222656 346.914062 79.765625 352.414062 79.765625 357.917969 Z M 79.765625 556.859375 " fill-opacity="1" fill-rule="evenodd"/></g><g clip-path="url(#e170d67d3b)"><path fill="#ffffff" d="M 734.8125 556.859375 L 729.3125 556.859375 L 729.3125 357.917969 C 729.3125 351.957031 728.855469 346.457031 728.398438 341.414062 L 734.8125 341.414062 C 768.734375 341.414062 796.238281 368.460938 796.238281 402.382812 L 796.238281 496.351562 C 796.238281 530.273438 768.734375 556.859375 734.8125 556.859375 Z M 734.8125 556.859375 " fill-opacity="1" fill-rule="evenodd"/></g><g fill="#ffffff" fill-opacity="1"><g transform="translate(396.656235, 416.249999)"><g><path d="M 12.453125 0 L 11.96875 -2.28125 L 11.84375 -2.28125 C 11.050781 -1.28125 10.253906 -0.597656 9.453125 -0.234375 C 8.660156 0.117188 7.664062 0.296875 6.46875 0.296875 C 4.882812 0.296875 3.640625 -0.113281 2.734375 -0.9375 C 1.828125 -1.757812 1.375 -2.925781 1.375 -4.4375 C 1.375 -7.675781 3.96875 -9.375 9.15625 -9.53125 L 11.875 -9.625 L 11.875 -10.625 C 11.875 -11.882812 11.601562 -12.8125 11.0625 -13.40625 C 10.519531 -14.007812 9.65625 -14.3125 8.46875 -14.3125 C 7.125 -14.3125 5.609375 -13.898438 3.921875 -13.078125 L 3.171875 -14.9375 C 3.960938 -15.375 4.828125 -15.710938 5.765625 -15.953125 C 6.710938 -16.191406 7.660156 -16.3125 8.609375 -16.3125 C 10.523438 -16.3125 11.941406 -15.882812 12.859375 -15.03125 C 13.785156 -14.1875 14.25 -12.828125 14.25 -10.953125 L 14.25 0 Z M 6.953125 -1.71875 C 8.472656 -1.71875 9.664062 -2.128906 10.53125 -2.953125 C 11.394531 -3.785156 11.828125 -4.953125 11.828125 -6.453125 L 11.828125 -7.890625 L 9.390625 -7.796875 C 7.453125 -7.722656 6.054688 -7.421875 5.203125 -6.890625 C 4.347656 -6.359375 3.921875 -5.53125 3.921875 -4.40625 C 3.921875 -3.53125 4.1875 -2.863281 4.71875 -2.40625 C 5.25 -1.945312 5.992188 -1.71875 6.953125 -1.71875 Z M 6.953125 -1.71875 "/></g></g></g></svg>